<svg id="64dcef4a-e73c-4644-8f2e-95860382356a" data-name="Layer 1" xmlns="http://www.w3.org/2000/svg" viewBox="0 0 68.032 34.942"><defs><style>.\35 2245f11-5ce2-4b13-924e-6cd6abf6f881{fill:#fff}</style></defs><title>logo_levi</title><path class="52245f11-5ce2-4b13-924e-6cd6abf6f881" d="M23.474 3.745A14.659 14.659 0 0 0 13.682 0a13.368 13.368 0 0 0-9.647 4.149A14.283 14.283 0 0 0 0 14.153a13.568 13.568 0 0 0 9.238 13.174l2.826-4.67a8.566 8.566 0 0 1-6.854-8.594 8.757 8.757 0 0 1 8.583-8.9 8.657 8.657 0 0 1 8.795 8.681 13.651 13.651 0 0 1-2.232 6.675l-.016.028-.016.026-9.267 14.37h4.78A2.509 2.509 0 0 0 18 33.683l5.078-8.559c.307-.538.627-1.084.936-1.611 1.852-3.158 3.766-6.423 3.766-9.8a13.124 13.124 0 0 0-4.3-9.973"/><path class="52245f11-5ce2-4b13-924e-6cd6abf6f881" d="M13.9 9.881a3.722 3.722 0 0 0-3.631 3.806 3.721 3.721 0 0 0 3.631 3.8 3.721 3.721 0 0 0 3.631-3.8A3.722 3.722 0 0 0 13.9 9.881m19.675-5.289h2.752v11.436h-2.752zm13.325 7.47h-6.369a2.518 2.518 0 0 0 .516 1.523 1.8 1.8 0 0 0 1.415.561 2.166 2.166 0 0 0 1.108-.261 1.726 1.726 0 0 0 .593-.741l2.6.281a3.961 3.961 0 0 1-1.644 2.243 4.873 4.873 0 0 1-2.7.662 4.3 4.3 0 0 1-3.4-1.282 4.925 4.925 0 0 1-1.278-3.448 5.219 5.219 0 0 1 1.3-3.525 4.336 4.336 0 0 1 3.268-1.282 4.382 4.382 0 0 1 3.383 1.341 5.253 5.253 0 0 1 1.2 3.626v.3zm-2.546-1.722A2.314 2.314 0 0 0 43.8 9.3a1.952 1.952 0 0 0-2.695.08 2.041 2.041 0 0 0-.478.962h3.727zm5.866-3.246l2.159 4.788 2.16-4.788h3.02l-4.319 8.934h-1.721L47.2 7.094h3.02zm11.008 0V13.8a2.177 2.177 0 0 1-2.128 2.228h-.624V7.094h2.752zM33.5 18.328h2.75v1.062a3.056 3.056 0 0 1 2.638-1.3 3.265 3.265 0 0 1 2.446.9 3.607 3.607 0 0 1 .86 2.624v5.649h-2.752v-4.588a2.563 2.563 0 0 0-.459-1.783 1.408 1.408 0 0 0-1.051-.4 1.464 1.464 0 0 0-1.147.481 2.362 2.362 0 0 0-.535 1.7v4.587H33.5v-8.932zm13.4 0v6.707a2.177 2.177 0 0 1-2.125 2.227h-.632v-8.934H46.9zm1.944 0H51.6v1.062a3.056 3.056 0 0 1 2.638-1.3 3.265 3.265 0 0 1 2.446.9 3.607 3.607 0 0 1 .86 2.624v5.649h-2.756v-4.588a2.563 2.563 0 0 0-.459-1.783 1.408 1.408 0 0 0-1.051-.4 1.464 1.464 0 0 0-1.147.481 2.362 2.362 0 0 0-.535 1.7v4.587h-2.752v-8.932zm19.188 4.967h-6.365a2.513 2.513 0 0 0 .516 1.522 1.8 1.8 0 0 0 1.415.561 2.168 2.168 0 0 0 1.108-.26 1.726 1.726 0 0 0 .593-.741l2.6.28a3.96 3.96 0 0 1-1.645 2.243 4.871 4.871 0 0 1-2.694.661 4.294 4.294 0 0 1-3.4-1.282 4.92 4.92 0 0 1-1.281-3.445 5.228 5.228 0 0 1 1.3-3.526 4.875 4.875 0 0 1 6.652.06 5.253 5.253 0 0 1 1.2 3.626v.3zm-2.542-1.722a2.32 2.32 0 0 0-.554-1.042 1.953 1.953 0 0 0-2.7.08 2.049 2.049 0 0 0-.477.962h3.731z"/></svg>